<?xml version="1.0" standalone="no"?>
<!DOCTYPE svg PUBLIC "-//W3C//DTD SVG 20010904//EN"
 "http://www.w3.org/TR/2001/REC-SVG-20010904/DTD/svg10.dtd">
<svg version="1.0" xmlns="http://www.w3.org/2000/svg"
 width="344.000000pt" height="344.000000pt" viewBox="0 0 344.000000 344.000000"
 preserveAspectRatio="xMidYMid meet">

<g transform="translate(0.000000,344.000000) scale(0.100000,-0.100000)"
fill="#000000" stroke="none">
<path d="M1575 3319 c-367 -46 -709 -300 -845 -626 -74 -178 -74 -172 -78
-738 l-3 -510 60 -255 c32 -140 58 -256 56 -258 -1 -1 -31 -7 -65 -13 -82 -13
-100 -23 -100 -57 0 -16 36 -185 80 -377 44 -193 80 -351 80 -352 0 -1 9 -7
20 -13 27 -15 370 43 386 65 7 9 17 68 23 133 7 64 16 124 20 132 4 8 30 20
57 27 82 19 81 19 87 -43 12 -120 95 -231 215 -287 59 -28 77 -32 152 -32 71
0 94 5 143 28 68 31 107 62 154 120 34 44 73 148 73 198 0 17 5 29 13 29 37
-2 122 -28 128 -41 5 -8 13 -67 20 -131 6 -65 16 -124 23 -133 16 -22 359 -80
386 -65 11 6 20 12 20 13 0 1 36 159 80 352 44 192 80 361 80 377 0 34 -17 43
-104 58 -54 10 -66 15 -62 29 3 9 30 125 61 258 l56 241 -3 504 -4 503 -27 98
c-137 508 -641 833 -1182 766z m320 -274 c138 -29 259 -89 374 -185 25 -21 57
-43 69 -50 34 -17 104 -14 143 5 32 17 33 17 51 -6 32 -43 107 -203 122 -264
9 -34 20 -94 26 -134 9 -65 8 -75 -9 -99 -10 -15 -40 -78 -67 -141 -69 -166
-75 -171 -220 -193 -243 -36 -323 -41 -664 -41 -341 0 -421 5 -664 41 -144 22
-151 28 -216 182 -24 58 -55 122 -68 144 -23 37 -23 42 -12 119 6 44 21 109
32 146 20 67 84 197 117 240 17 23 18 23 50 6 39 -20 109 -22 143 -4 12 7 52
36 88 65 107 86 221 141 350 168 87 19 268 19 355 1z m-1040 -1114 c20 -17 40
-31 45 -31 6 0 10 -52 10 -127 l0 -127 -80 84 -79 85 0 135 -1 135 35 -61 c19
-34 51 -76 70 -93z m1828 -115 c-4 -7 -41 -48 -80 -91 l-73 -79 0 127 c0 78 4
127 10 127 22 0 88 72 116 127 l29 58 3 -128 c1 -70 -1 -134 -5 -141z m-1257
-177 c59 -28 87 -65 80 -104 -17 -82 -96 -184 -174 -224 -84 -43 -188 -17
-230 58 -68 121 -14 246 128 292 40 14 149 1 196 -22z m424 -9 c-23 -46 -25
-89 -7 -151 11 -37 11 -66 -1 -182 -13 -118 -18 -137 -31 -132 -33 14 -130 17
-162 6 -18 -6 -33 -10 -35 -8 -1 1 -9 62 -17 135 -12 114 -12 141 -1 180 19
63 17 106 -6 152 l-20 40 150 0 150 0 -20 -40z m365 29 c94 -24 165 -122 151
-211 -31 -193 -242 -214 -372 -37 -40 55 -67 125 -59 156 12 48 117 101 203
102 18 1 53 -4 77 -10z m-1189 -389 c127 -268 206 -449 199 -459 -5 -9 -95
-35 -100 -29 -1 2 -28 39 -61 83 -32 44 -63 84 -69 88 -5 4 -37 6 -70 5 l-60
-3 -56 240 c-52 218 -58 251 -58 355 l0 115 89 -95 c86 -92 91 -101 186 -300z
m1606 -70 l-58 -245 -59 3 c-33 1 -65 -1 -70 -5 -6 -4 -36 -43 -68 -85 -60
-82 -67 -85 -130 -67 -46 13 -49 0 53 224 199 434 202 439 297 543 l88 96 2
-110 c3 -102 -1 -124 -55 -354z m-1169 -41 c55 -69 62 -89 31 -89 -24 0 -115
-49 -162 -87 -24 -20 -44 -34 -46 -32 -3 3 -88 190 -103 226 -3 8 14 11 59 11
44 -1 76 5 108 20 25 11 48 21 51 21 3 1 31 -31 62 -70z m623 49 c34 -15 68
-21 112 -21 35 0 62 -3 60 -7 -6 -14 -102 -225 -104 -229 -2 -2 -22 13 -46 32
-43 35 -141 87 -165 87 -29 0 -20 25 33 90 31 38 57 70 59 70 1 0 24 -10 51
-22z m-296 -150 c10 -6 25 -24 34 -39 12 -20 33 -32 85 -48 71 -22 139 -65
174 -113 l20 -26 -28 -76 -28 -76 -56 58 c-156 160 -385 161 -543 1 l-56 -58
-28 75 -27 75 20 27 c35 47 102 91 173 113 57 17 73 27 90 55 32 50 115 66
170 32z m-793 -275 c52 -69 60 -86 84 -182 25 -104 25 -110 13 -220 -7 -62
-15 -115 -17 -118 -5 -4 -230 -44 -232 -40 -5 6 -135 591 -132 593 1 2 52 12
112 22 61 11 111 20 112 21 2 1 28 -33 60 -76z m1731 33 c2 -3 -128 -587 -133
-593 -2 -4 -227 36 -232 40 -2 3 -10 56 -17 118 -12 110 -12 116 13 220 24 95
32 113 83 181 l56 75 113 -19 c63 -11 115 -21 117 -22z"/>
<path d="M1152 2245 c-20 -14 -22 -25 -22 -95 0 -73 2 -81 24 -95 46 -31 86
13 86 94 0 42 -18 101 -30 101 -5 0 -14 2 -22 5 -7 3 -23 -2 -36 -10z"/>
<path d="M1422 2244 c-20 -13 -22 -24 -22 -94 0 -74 2 -81 25 -96 23 -15 27
-15 50 0 23 15 25 22 25 96 0 70 -2 81 -22 94 -12 9 -25 16 -28 16 -3 0 -16
-7 -28 -16z"/>
<path d="M1692 2244 c-20 -13 -22 -24 -22 -94 0 -74 2 -81 25 -96 23 -15 27
-15 50 0 23 15 25 22 25 96 0 70 -2 81 -22 94 -12 9 -25 16 -28 16 -3 0 -16
-7 -28 -16z"/>
<path d="M1962 2244 c-20 -13 -22 -24 -22 -94 0 -74 2 -81 25 -96 23 -15 27
-15 50 0 23 15 25 22 25 96 0 70 -2 81 -22 94 -12 9 -25 16 -28 16 -3 0 -16
-7 -28 -16z"/>
<path d="M2238 2253 c-33 -9 -49 -108 -27 -171 12 -36 45 -47 76 -26 21 13 23
22 23 94 0 70 -2 81 -22 94 -12 9 -25 15 -28 15 -3 -1 -13 -3 -22 -6z"/>
</g>
</svg>
